<svg width="31" height="30" viewBox="0 0 31 30" fill="none" xmlns="http://www.w3.org/2000/svg">
<rect x="1.16943" y="0.737793" width="28.3795" height="28.5248" rx="14.1897" fill="white" stroke="#3D4140"/>
<path d="M18.8564 8.67981C19.0346 8.46824 19.2549 8.29603 19.5035 8.17415C19.752 8.05227 20.0233 7.9834 20.3 7.97193C20.5767 7.96046 20.8527 8.00663 21.1105 8.10751C21.3683 8.2084 21.6023 8.36177 21.7974 8.55786C21.9925 8.75395 22.1446 8.98846 22.2438 9.24643C22.3431 9.50441 22.3874 9.78019 22.374 10.0562C22.3606 10.3322 22.2896 10.6024 22.1657 10.8496C22.0419 11.0967 21.8677 11.3154 21.6545 11.4917L12.5826 20.6084C12.3392 20.8531 12.036 21.0298 11.7031 21.121C10.2266 21.5257 8.87353 20.1579 9.2745 18.6804C9.3649 18.3473 9.54108 18.0412 9.78456 17.7965L18.8564 8.67981Z" fill="#FDFDFD"/>
<path d="M17.4574 10.0858L20.2555 12.8976L17.4574 10.0858Z" fill="#FDFDFD"/>
<path d="M17.4574 10.0858L20.2555 12.8976M18.8564 8.67981C19.0346 8.46824 19.2549 8.29603 19.5035 8.17415C19.752 8.05227 20.0233 7.9834 20.3 7.97193C20.5767 7.96046 20.8527 8.00663 21.1105 8.10751C21.3683 8.2084 21.6023 8.36177 21.7974 8.55786C21.9925 8.75395 22.1446 8.98846 22.2438 9.24643C22.3431 9.50441 22.3874 9.78019 22.374 10.0562C22.3606 10.3322 22.2896 10.6024 22.1657 10.8496C22.0419 11.0967 21.8677 11.3154 21.6545 11.4917L12.5826 20.6084C12.3392 20.8531 12.036 21.0298 11.7031 21.121V21.121C10.2266 21.5257 8.87353 20.1579 9.2745 18.6804V18.6804C9.3649 18.3473 9.54108 18.0412 9.78456 17.7965L18.8564 8.67981Z" stroke="#3D4140" stroke-linecap="round" stroke-linejoin="round"/>
</svg>
